<svg xmlns="http://www.w3.org/2000/svg" data-name="Layer 1" viewBox="0 0 64 64" id="agriculture"><path fill="#80b918" d="M8 33H8C2.667 27.964 2.667 22.036 8 17H8c5.333 5.036 5.333 10.964 0 16zM20 49h0a7.249 7.249 0 0 1 0-10h0a7.249 7.249 0 0 1 0 10zM57 45h0c-5.333-5.036-5.333-10.964 0-16h0c5.333 5.036 5.333 10.964 0 16z"></path><circle cx="41" cy="15" r="6" fill="#f9c74f"></circle><path fill="#80b918" d="M35,45h0c-5.333-5.036-5.333-10.964,0-16h0c5.333,5.036,5.333,10.964,0,16Z"></path><rect width="2" height="4" x="40" y="2" rx="1"></rect><rect width="2" height="4" x="40" y="24" rx="1"></rect><rect width="4" height="2" x="50" y="14" rx="1"></rect><rect width="4" height="2" x="28" y="14" rx="1"></rect><path d="M48.778 8.636l1.415-1.414a1 1 0 0 0-1.415-1.414L47.364 7.222a1 1 0 0 0 1.414 1.414zM33.222 21.364l-1.415 1.414a1 1 0 0 0 1.415 1.414l1.414-1.414a1 1 0 1 0-1.414-1.414zM48.778 21.364a1 1 0 1 0-1.414 1.414l1.414 1.414a1 1 0 0 0 1.415-1.414zM33.222 8.636a1 1 0 1 0 1.414-1.414L33.222 5.808a1 1 0 0 0-1.415 1.414z"></path><path d="M62 37c0-3.044-1.492-6.062-4.313-8.727a1 1 0 0 0-1.374 0C53.492 30.938 52 33.956 52 37c0 2.925 1.391 5.821 4 8.407V52H36V45.407c2.609-2.586 4-5.482 4-8.407 0-3.044-1.492-6.062-4.313-8.727a1 1 0 0 0-1.374 0C31.492 30.938 30 33.956 30 37c0 2.925 1.391 5.821 4 8.407V52H21V49.344a8.179 8.179 0 0 0-.237-10.99 1.033 1.033 0 0 0-1.526 0A8.179 8.179 0 0 0 19 49.344V52H9V33.407c2.609-2.586 4-5.482 4-8.407 0-3.044-1.492-6.062-4.313-8.727a1 1 0 0 0-1.374 0C4.492 18.938 3 21.956 3 25c0 2.925 1.391 5.821 4 8.407V52H3a1 1 0 0 0 0 2H7v2H3a1 1 0 0 0 0 2H7v2H3a1 1 0 0 0 0 2H61a1 1 0 0 0 0-2H58V58h3a1 1 0 0 0 0-2H58V54h3a1 1 0 0 0 0-2H58V45.407C60.609 42.821 62 39.925 62 37zM32 37a9.749 9.749 0 0 1 3-6.586A9.749 9.749 0 0 1 38 37a9.014 9.014 0 0 1-2 5.386V36a1 1 0 0 0-2 0v6.386A9.014 9.014 0 0 1 32 37zM20 40.691a6 6 0 0 1 0 6.618A6 6 0 0 1 20 40.691zM5 25a9.749 9.749 0 0 1 3-6.586A9.749 9.749 0 0 1 11 25a9.014 9.014 0 0 1-2 5.386V24a1 1 0 0 0-2 0v6.386A9.014 9.014 0 0 1 5 25zM34 54v2H21V54zM9 54H19v2H9zm0 6V58H34v2zm47 0H36V58H56zm0-4H36V54H56zM54 37a9.749 9.749 0 0 1 3-6.586A9.749 9.749 0 0 1 60 37a9.014 9.014 0 0 1-2 5.386V36a1 1 0 0 0-2 0v6.386A9.014 9.014 0 0 1 54 37zM41 22a7 7 0 1 0-7-7A7.008 7.008 0 0 0 41 22zm0-12a5 5 0 1 1-5 5A5.006 5.006 0 0 1 41 10z"></path></svg>